<svg width="100" height="100" viewBox="0 0 100 100" fill="none" xmlns="http://www.w3.org/2000/svg">
<g clip-path="url(#clip0_3209_1786)">
<path d="M25.6602 60.92C12.4672 60.92 1.52935 72.4477 -0.472358 85.2966C-0.829417 87.5886 1.0806 89.48 3.40019 89.48H47.9202C50.2398 89.48 52.1498 87.5886 51.7927 85.2966C49.791 72.4477 38.8532 60.92 25.6602 60.92Z" fill="#C1E7F8"/>
<path d="M47.9961 66.0638C51.0436 68.5353 53.5003 71.6565 55.1865 75.1994C56.8727 78.7423 57.7459 82.6172 57.7421 86.5409" stroke="#297DC0" stroke-width="5" stroke-linecap="round" stroke-linejoin="round"/>
<path d="M31.3594 60.1583C37.4201 60.149 43.2976 62.2354 47.996 66.0639" stroke="#297DC0" stroke-width="5" stroke-linecap="round" stroke-linejoin="round"/>
<path d="M4.97657 86.5408C4.97277 82.6179 5.84557 78.7438 7.53114 75.2015C9.21671 71.6592 11.6724 68.5382 14.7189 66.0668" stroke="#297DC0" stroke-width="5" stroke-linecap="round" stroke-linejoin="round"/>
<path d="M24.7943 60.1583C34.8117 60.1583 42.9323 52.0376 42.9323 42.0202C42.9323 32.0029 34.8117 23.8822 24.7943 23.8822C14.7769 23.8822 6.65625 32.0029 6.65625 42.0202C6.65625 52.0376 14.7769 60.1583 24.7943 60.1583Z" fill="#C1E7F8"/>
<path d="M31.3587 60.1583C41.3761 60.1583 49.4968 52.0376 49.4968 42.0202C49.4968 32.0029 41.3761 23.8822 31.3587 23.8822C21.3414 23.8822 13.2207 32.0029 13.2207 42.0202C13.2207 52.0376 21.3414 60.1583 31.3587 60.1583Z" stroke="#297DC0" stroke-width="5" stroke-linecap="round" stroke-linejoin="round"/>
<path d="M55 36.7691V18.9088C55 16.1978 57.2684 14 60.0667 14H87.9333C90.7316 14 93 16.1978 93 18.9088V36.7691C93 38.2206 92.337 39.5976 91.1892 40.5303L77.2559 51.8523C75.3726 53.3826 72.6274 53.3826 70.7441 51.8523L56.8108 40.5303C55.663 39.5976 55 38.2206 55 36.7691Z" fill="#00AFF5"/>
<circle cx="60.8333" cy="31.3333" r="0.833333" fill="white"/>
<circle cx="64.1663" cy="28.8333" r="0.833333" fill="white"/>
<circle cx="60.8333" cy="26.3333" r="0.833333" fill="white"/>
<circle cx="70.8333" cy="28.8333" r="0.833333" fill="white"/>
<circle cx="67.5003" cy="26.3333" r="0.833333" fill="white"/>
<circle cx="64.1663" cy="23.8333" r="0.833333" fill="white"/>
<circle cx="60.8333" cy="21.3334" r="0.833333" fill="white"/>
<circle cx="74.1663" cy="26.3333" r="0.833333" fill="white"/>
<circle cx="70.8333" cy="23.8333" r="0.833333" fill="white"/>
<circle cx="67.5003" cy="21.3334" r="0.833333" fill="white"/>
<circle cx="64.1663" cy="18.8333" r="0.833333" fill="white"/>
<circle cx="88.3333" cy="26.3333" r="0.833333" fill="white"/>
<circle cx="80.8333" cy="26.3333" r="0.833333" fill="white"/>
<circle cx="85.0003" cy="23.8333" r="0.833333" fill="white"/>
<circle cx="89.1663" cy="21.3334" r="0.833333" fill="white"/>
<circle cx="77.5003" cy="23.8333" r="0.833333" fill="white"/>
<circle cx="81.6663" cy="21.3334" r="0.833333" fill="white"/>
<circle cx="85.8333" cy="18.8333" r="0.833333" fill="white"/>
<circle cx="74.1663" cy="21.3334" r="0.833333" fill="white"/>
<circle cx="78.3333" cy="18.8333" r="0.833333" fill="white"/>
<circle cx="70.8333" cy="18.8333" r="0.833333" fill="white"/>
<circle cx="79.1663" cy="13.8333" r="0.833333" fill="white"/>
<path fill-rule="evenodd" clip-rule="evenodd" d="M61.4118 16.8072C60.0473 16.8072 58.9412 17.8834 58.9412 19.2109V36.7015C58.9412 37.4122 59.2644 38.0864 59.8241 38.5431L73.4124 49.6308C74.3307 50.3801 75.6693 50.3801 76.5876 49.6308L90.1759 38.5431C90.7356 38.0864 91.0588 37.4122 91.0588 36.7015V19.2109C91.0588 17.8834 89.9527 16.8072 88.5882 16.8072H61.4118ZM54 19.2109C54 15.2284 57.3184 12 61.4118 12H88.5882C92.6816 12 96 15.2284 96 19.2109V36.7015C96 38.8335 95.0302 40.8563 93.3511 42.2264L79.7629 53.314C77.008 55.562 72.992 55.562 70.2371 53.314L56.6489 42.2264C54.9698 40.8563 54 38.8335 54 36.7015V19.2109Z" fill="#297DC0"/>
<path fill-rule="evenodd" clip-rule="evenodd" d="M84.3893 33.8627C85.2936 34.906 85.1808 36.4849 84.1374 37.3892L76.6374 43.8892C75.7259 44.6792 74.3803 44.7057 73.4384 43.9522L68.4384 39.9521C67.3602 39.0896 67.1854 37.5164 68.0479 36.4382C68.9104 35.3601 70.4837 35.1853 71.5618 36.0478L74.9361 38.7472L80.8628 33.6108C81.9062 32.7065 83.485 32.8193 84.3893 33.8627Z" fill="white"/>
</g>
<defs>
<clipPath id="clip0_3209_1786">
<rect width="100" height="100" fill="white"/>
</clipPath>
</defs>
</svg>
