<svg width="100" height="100" viewBox="0 0 100 100" fill="none" xmlns="http://www.w3.org/2000/svg">
<rect width="100" height="100" fill="white"/>
<path d="M87 53C87 60.8573 84.8424 68.2107 81.0873 74.5C79.2259 77.6175 89.5782 90.4736 87 93C84.2178 95.7264 68.4518 88.0688 65 89.9415C59.0535 93.1677 52.2407 95 45 95C21.804 95 3 76.196 3 53C3 29.804 21.804 11 45 11C68.196 11 87 29.804 87 53Z" fill="#C1E7F8"/>
<path d="M89.5 50C89.5 57.3937 87.4709 64.3058 83.9408 70.2184C83.265 71.3502 83.3092 72.598 83.4413 73.4634C83.5825 74.3893 83.9016 75.3583 84.265 76.2734C84.945 77.9854 85.9623 79.9447 86.9032 81.7568C86.967 81.8795 87.0303 82.0016 87.0932 82.1228C88.1299 84.1213 89.0382 85.9066 89.5496 87.3282C89.6572 87.6273 89.7361 87.881 89.7924 88.0929C89.4011 88.0866 88.8954 88.0397 88.266 87.9398C86.5152 87.662 84.3199 87.063 81.9335 86.3858C81.6879 86.3161 81.4402 86.2456 81.1911 86.1747C79.0961 85.578 76.9014 84.953 75.0051 84.5638C73.9405 84.3453 72.8736 84.1798 71.9032 84.1484C71.0021 84.1192 69.8327 84.188 68.8078 84.7441C63.2182 87.7767 56.8141 89.5 50 89.5C28.1848 89.5 10.5 71.8153 10.5 50C10.5 28.1848 28.1848 10.5 50 10.5C71.8153 10.5 89.5 28.1848 89.5 50ZM89.9143 88.8287C89.9141 88.8286 89.9143 88.8246 89.9151 88.8172C89.9148 88.8252 89.9144 88.8289 89.9143 88.8287ZM90.5008 88.0368C90.5057 88.0349 90.5084 88.0341 90.5085 88.0341C90.5086 88.0342 90.5062 88.0352 90.5008 88.0368Z" stroke="#297DC0" stroke-width="5"/>
<path d="M39.7862 67.629H32.8119C32.0487 67.629 31.2929 67.4787 30.5878 67.1866C29.8827 66.8945 29.242 66.4664 28.7023 65.9267C28.1626 65.387 27.7345 64.7463 27.4424 64.0412C27.1503 63.3361 27 62.5803 27 61.8171V45.5437C27 44.0023 27.6123 42.524 28.7023 41.434C29.7922 40.3441 31.2705 39.7317 32.8119 39.7317H43.2734C43.89 39.7317 44.4813 39.9767 44.9173 40.4127C45.3532 40.8486 45.5982 41.44 45.5982 42.0565V61.8171C45.5982 62.5803 45.4478 63.3361 45.1558 64.0412C44.8637 64.7463 44.4356 65.387 43.8959 65.9267C43.3562 66.4664 42.7155 66.8945 42.0104 67.1866C41.3052 67.4787 40.5495 67.629 39.7862 67.629ZM62.2435 67.629H54.0836C52.8917 67.6334 51.7041 67.4849 50.5499 67.1873L42.7155 65.3042C42.1997 65.177 41.743 64.8768 41.4215 64.4538C41.1001 64.0309 40.9332 63.5105 40.9486 62.9795V44.3813C40.9456 43.948 41.0637 43.5226 41.2897 43.1529C41.5156 42.7832 41.8403 42.484 42.2273 42.289L44.4125 41.2196C45.6673 40.5868 46.7098 39.601 47.4115 38.3834C49.1689 35.3117 50.7221 32.1276 52.061 28.8518C52.5784 27.8248 53.4225 26.999 54.4606 26.5043C55.4986 26.0096 56.6717 25.874 57.7952 26.119C58.9188 26.3639 59.929 26.9755 60.6669 27.8574C61.4048 28.7393 61.8286 29.8415 61.8716 30.9906V32.6179C61.8731 34.4994 61.5669 36.3684 60.9649 38.1509L60.4535 39.7317H67.4278C68.3673 39.7353 69.2963 39.9287 70.1592 40.3002C71.0221 40.6717 71.8011 41.2138 72.4493 41.8938C73.1121 42.5975 73.6265 43.4273 73.962 44.3339C74.2975 45.2405 74.4472 46.2054 74.4021 47.171C74.0932 52.3828 72.8161 57.4915 70.636 62.2355C69.894 63.8389 68.7105 65.1978 67.2242 66.1529C65.7379 67.1081 64.0103 67.6201 62.2435 67.629Z" fill="white"/>
<path d="M39.7862 67.629H32.8119C32.0487 67.629 31.2929 67.4787 30.5878 67.1866C29.8827 66.8945 29.242 66.4664 28.7023 65.9267C28.1626 65.387 27.7345 64.7463 27.4424 64.0412C27.1503 63.3361 27 62.5803 27 61.8171V45.5437C27 44.0023 27.6123 42.524 28.7023 41.434C29.7922 40.3441 31.2705 39.7317 32.8119 39.7317H43.2734C43.89 39.7317 44.4813 39.9767 44.9173 40.4127C45.3532 40.8486 45.5982 41.44 45.5982 42.0565V61.8171C45.5982 62.5803 45.4478 63.3361 45.1558 64.0412C44.8637 64.7463 44.4356 65.387 43.8959 65.9267C43.3562 66.4664 42.7155 66.8945 42.0104 67.1866C41.3052 67.4787 40.5495 67.629 39.7862 67.629ZM32.8119 44.3813C32.5055 44.3872 32.2133 44.5116 31.9966 44.7283C31.7799 44.945 31.6555 45.2373 31.6495 45.5437V61.8171C31.6555 62.1235 31.7799 62.4157 31.9966 62.6324C32.2133 62.8491 32.5055 62.9735 32.8119 62.9795H39.7862C40.0945 62.9795 40.3902 62.857 40.6082 62.639C40.8262 62.421 40.9486 62.1254 40.9486 61.8171V44.3813H32.8119ZM62.2435 67.629H54.0836C52.8917 67.6334 51.7041 67.4849 50.5499 67.1873L42.7155 65.3042C42.1997 65.177 41.743 64.8768 41.4215 64.4538C41.1001 64.0309 40.9332 63.5105 40.9486 62.9795V44.3813C40.9456 43.948 41.0637 43.5226 41.2897 43.1529C41.5156 42.7832 41.8403 42.484 42.2273 42.289L44.4125 41.2196C45.6673 40.5868 46.7098 39.601 47.4115 38.3834C49.1689 35.3117 50.7221 32.1276 52.061 28.8518C52.5784 27.8248 53.4225 26.999 54.4606 26.5043C55.4986 26.0096 56.6717 25.874 57.7952 26.119C58.9188 26.3639 59.929 26.9755 60.6669 27.8574C61.4048 28.7393 61.8286 29.8415 61.8716 30.9906V32.6179C61.8731 34.4994 61.5669 36.3684 60.9649 38.1509L60.4535 39.7317H67.4278C68.3673 39.7353 69.2963 39.9287 70.1592 40.3002C71.0221 40.6717 71.8011 41.2138 72.4493 41.8938C73.1121 42.5975 73.6265 43.4273 73.962 44.3339C74.2975 45.2405 74.4472 46.2054 74.4021 47.171C74.0932 52.3828 72.8161 57.4915 70.636 62.2355C69.894 63.8389 68.7105 65.1978 67.2242 66.1529C65.7379 67.1081 64.0103 67.6201 62.2435 67.629ZM45.5982 61.1661L51.6658 62.6772C52.4252 62.8742 53.2061 62.9757 53.9906 62.9795H62.1506C63.0583 63.0129 63.956 62.7798 64.7327 62.3088C65.5094 61.8378 66.1311 61.1496 66.5211 60.3292C68.4565 56.1114 69.5916 51.5709 69.8688 46.9385C69.8851 46.6029 69.8338 46.2674 69.718 45.9519C69.6021 45.6364 69.4242 45.3474 69.1946 45.102C68.9813 44.8781 68.7254 44.699 68.4419 44.5753C68.1585 44.4515 67.8533 44.3856 67.544 44.3813H58.2449C57.7727 44.3789 57.3076 44.2651 56.8876 44.049C56.4677 43.8329 56.1047 43.5206 55.8283 43.1377C55.5518 42.7548 55.3697 42.312 55.2968 41.8453C55.2239 41.3787 55.2623 40.9014 55.4087 40.4524L56.6873 36.6863C57.0732 35.3656 57.2535 33.9935 57.222 32.6179V30.9906C57.2052 30.8762 57.1546 30.7694 57.0768 30.6839C56.9989 30.5984 56.8974 30.5381 56.785 30.5106C56.6727 30.4832 56.5548 30.4898 56.4462 30.5298C56.3377 30.5697 56.2436 30.6411 56.1759 30.7349C54.8498 34.1441 53.2965 37.4605 51.5263 40.6617C50.3638 42.669 48.6326 44.2869 46.5513 45.3112L45.6679 45.7529L45.5982 61.1661Z" fill="#297DC0"/>
</svg>
